<svg width="42" height="42" viewBox="0 0 42 42" fill="none" xmlns="http://www.w3.org/2000/svg">
<path d="M21 0.233337C32.5059 0.233337 41.8334 9.56073 41.8334 21.0667C41.8334 32.5725 32.5059 41.9 21 41.9C9.49408 41.9 0.166687 32.5725 0.166687 21.0667C0.166687 9.56073 9.49408 0.233337 21 0.233337ZM21 3.35834C11.22 3.35834 3.29169 11.2866 3.29169 21.0667C3.29169 30.8467 11.22 38.775 21 38.775C30.78 38.775 38.7084 30.8467 38.7084 21.0667C38.7084 11.2866 30.78 3.35834 21 3.35834ZM21 10.65C21.8629 10.65 22.5625 11.3496 22.5625 12.2125V19.5042H29.8542C30.7171 19.5042 31.4167 20.2038 31.4167 21.0667C31.4167 21.9296 30.7171 22.6292 29.8542 22.6292H22.5625V29.9208C22.5625 30.7838 21.8629 31.4833 21 31.4833C20.1371 31.4833 19.4375 30.7838 19.4375 29.9208V22.6292H12.1459C11.2829 22.6292 10.5834 21.9296 10.5834 21.0667C10.5834 20.2038 11.2829 19.5042 12.1459 19.5042H19.4375V12.2125C19.4375 11.3496 20.1371 10.65 21 10.65Z" fill="#03E9F4"/>
</svg>
